<mxfile host="app.diagrams.net" agent="Mozilla/5.0 (Windows NT 10.0; Win64; x64) AppleWebKit/537.36 (KHTML, like Gecko) Chrome/133.0.0.0 Safari/537.36" version="26.0.14">
  <diagram name="Page-1" id="wXo52lBOXI_3Bi-h2nfO">
    <mxGraphModel dx="1434" dy="780" grid="1" gridSize="10" guides="1" tooltips="1" connect="1" arrows="1" fold="1" page="1" pageScale="1" pageWidth="850" pageHeight="1100" math="0" shadow="0">
      <root>
        <mxCell id="0" />
        <mxCell id="1" parent="0" />
        <mxCell id="51-H1BaUCqU_3-FB2eF7-1" value="PhysicsApp" style="swimlane;fontStyle=1;align=center;verticalAlign=top;childLayout=stackLayout;horizontal=1;startSize=26;horizontalStack=0;resizeParent=1;resizeParentMax=0;resizeLast=0;collapsible=1;marginBottom=0;whiteSpace=wrap;html=1;" parent="1" vertex="1">
          <mxGeometry x="50" y="40" width="210" height="504" as="geometry" />
        </mxCell>
        <mxCell id="51-H1BaUCqU_3-FB2eF7-2" value="# m_2dRenderer: aie::Renderer2D*&lt;div&gt;&lt;br&gt;&lt;/div&gt;" style="text;strokeColor=none;fillColor=none;align=left;verticalAlign=top;spacingLeft=4;spacingRight=4;overflow=hidden;rotatable=0;points=[[0,0.5],[1,0.5]];portConstraint=eastwest;whiteSpace=wrap;html=1;" parent="51-H1BaUCqU_3-FB2eF7-1" vertex="1">
          <mxGeometry y="26" width="210" height="26" as="geometry" />
        </mxCell>
        <mxCell id="51-H1BaUCqU_3-FB2eF7-5" value="# m_font: aie::Font*" style="text;strokeColor=none;fillColor=none;align=left;verticalAlign=top;spacingLeft=4;spacingRight=4;overflow=hidden;rotatable=0;points=[[0,0.5],[1,0.5]];portConstraint=eastwest;whiteSpace=wrap;html=1;" parent="51-H1BaUCqU_3-FB2eF7-1" vertex="1">
          <mxGeometry y="52" width="210" height="26" as="geometry" />
        </mxCell>
        <mxCell id="51-H1BaUCqU_3-FB2eF7-6" value="# m_physicsScene: PhysicsScene*" style="text;strokeColor=none;fillColor=none;align=left;verticalAlign=top;spacingLeft=4;spacingRight=4;overflow=hidden;rotatable=0;points=[[0,0.5],[1,0.5]];portConstraint=eastwest;whiteSpace=wrap;html=1;" parent="51-H1BaUCqU_3-FB2eF7-1" vertex="1">
          <mxGeometry y="78" width="210" height="26" as="geometry" />
        </mxCell>
        <mxCell id="51-H1BaUCqU_3-FB2eF7-7" value="# flyBalls: std::vector&amp;lt;Sphere*&amp;gt;" style="text;strokeColor=none;fillColor=none;align=left;verticalAlign=top;spacingLeft=4;spacingRight=4;overflow=hidden;rotatable=0;points=[[0,0.5],[1,0.5]];portConstraint=eastwest;whiteSpace=wrap;html=1;" parent="51-H1BaUCqU_3-FB2eF7-1" vertex="1">
          <mxGeometry y="104" width="210" height="26" as="geometry" />
        </mxCell>
        <mxCell id="51-H1BaUCqU_3-FB2eF7-9" value="# waspBalls: std::vector&amp;lt;Sphere*&amp;gt;" style="text;strokeColor=none;fillColor=none;align=left;verticalAlign=top;spacingLeft=4;spacingRight=4;overflow=hidden;rotatable=0;points=[[0,0.5],[1,0.5]];portConstraint=eastwest;whiteSpace=wrap;html=1;" parent="51-H1BaUCqU_3-FB2eF7-1" vertex="1">
          <mxGeometry y="130" width="210" height="26" as="geometry" />
        </mxCell>
        <mxCell id="51-H1BaUCqU_3-FB2eF7-10" value="# brick: Box*" style="text;strokeColor=none;fillColor=none;align=left;verticalAlign=top;spacingLeft=4;spacingRight=4;overflow=hidden;rotatable=0;points=[[0,0.5],[1,0.5]];portConstraint=eastwest;whiteSpace=wrap;html=1;" parent="51-H1BaUCqU_3-FB2eF7-1" vertex="1">
          <mxGeometry y="156" width="210" height="26" as="geometry" />
        </mxCell>
        <mxCell id="ZmNFyfDXX2Pzir80ZX4i-1" value="# p2Brick: Box*" style="text;strokeColor=none;fillColor=none;align=left;verticalAlign=top;spacingLeft=4;spacingRight=4;overflow=hidden;rotatable=0;points=[[0,0.5],[1,0.5]];portConstraint=eastwest;whiteSpace=wrap;html=1;" parent="51-H1BaUCqU_3-FB2eF7-1" vertex="1">
          <mxGeometry y="182" width="210" height="26" as="geometry" />
        </mxCell>
        <mxCell id="51-H1BaUCqU_3-FB2eF7-11" value="# testBoxes: std::vector&amp;lt;Box*&amp;gt;" style="text;strokeColor=none;fillColor=none;align=left;verticalAlign=top;spacingLeft=4;spacingRight=4;overflow=hidden;rotatable=0;points=[[0,0.5],[1,0.5]];portConstraint=eastwest;whiteSpace=wrap;html=1;" parent="51-H1BaUCqU_3-FB2eF7-1" vertex="1">
          <mxGeometry y="208" width="210" height="26" as="geometry" />
        </mxCell>
        <mxCell id="ZmNFyfDXX2Pzir80ZX4i-3" value="# m_gameOver: bool" style="text;strokeColor=none;fillColor=none;align=left;verticalAlign=top;spacingLeft=4;spacingRight=4;overflow=hidden;rotatable=0;points=[[0,0.5],[1,0.5]];portConstraint=eastwest;whiteSpace=wrap;html=1;" parent="51-H1BaUCqU_3-FB2eF7-1" vertex="1">
          <mxGeometry y="234" width="210" height="26" as="geometry" />
        </mxCell>
        <mxCell id="ZmNFyfDXX2Pzir80ZX4i-4" value="# m_secondPlayerAlive: bool" style="text;strokeColor=none;fillColor=none;align=left;verticalAlign=top;spacingLeft=4;spacingRight=4;overflow=hidden;rotatable=0;points=[[0,0.5],[1,0.5]];portConstraint=eastwest;whiteSpace=wrap;html=1;" parent="51-H1BaUCqU_3-FB2eF7-1" vertex="1">
          <mxGeometry y="260" width="210" height="26" as="geometry" />
        </mxCell>
        <mxCell id="ZmNFyfDXX2Pzir80ZX4i-5" value="# debugCounter: int" style="text;strokeColor=none;fillColor=none;align=left;verticalAlign=top;spacingLeft=4;spacingRight=4;overflow=hidden;rotatable=0;points=[[0,0.5],[1,0.5]];portConstraint=eastwest;whiteSpace=wrap;html=1;" parent="51-H1BaUCqU_3-FB2eF7-1" vertex="1">
          <mxGeometry y="286" width="210" height="26" as="geometry" />
        </mxCell>
        <mxCell id="ZmNFyfDXX2Pzir80ZX4i-6" value="# debugMode: bool" style="text;strokeColor=none;fillColor=none;align=left;verticalAlign=top;spacingLeft=4;spacingRight=4;overflow=hidden;rotatable=0;points=[[0,0.5],[1,0.5]];portConstraint=eastwest;whiteSpace=wrap;html=1;" parent="51-H1BaUCqU_3-FB2eF7-1" vertex="1">
          <mxGeometry y="312" width="210" height="26" as="geometry" />
        </mxCell>
        <mxCell id="ZmNFyfDXX2Pzir80ZX4i-7" value="# waveCounter: int" style="text;strokeColor=none;fillColor=none;align=left;verticalAlign=top;spacingLeft=4;spacingRight=4;overflow=hidden;rotatable=0;points=[[0,0.5],[1,0.5]];portConstraint=eastwest;whiteSpace=wrap;html=1;" parent="51-H1BaUCqU_3-FB2eF7-1" vertex="1">
          <mxGeometry y="338" width="210" height="26" as="geometry" />
        </mxCell>
        <mxCell id="ZmNFyfDXX2Pzir80ZX4i-8" value="# pause: bool" style="text;strokeColor=none;fillColor=none;align=left;verticalAlign=top;spacingLeft=4;spacingRight=4;overflow=hidden;rotatable=0;points=[[0,0.5],[1,0.5]];portConstraint=eastwest;whiteSpace=wrap;html=1;" parent="51-H1BaUCqU_3-FB2eF7-1" vertex="1">
          <mxGeometry y="364" width="210" height="26" as="geometry" />
        </mxCell>
        <mxCell id="51-H1BaUCqU_3-FB2eF7-3" value="" style="line;strokeWidth=1;fillColor=none;align=left;verticalAlign=middle;spacingTop=-1;spacingLeft=3;spacingRight=3;rotatable=0;labelPosition=right;points=[];portConstraint=eastwest;strokeColor=inherit;" parent="51-H1BaUCqU_3-FB2eF7-1" vertex="1">
          <mxGeometry y="390" width="210" height="10" as="geometry" />
        </mxCell>
        <mxCell id="51-H1BaUCqU_3-FB2eF7-4" value="+ startup(): virtual bool" style="text;strokeColor=none;fillColor=none;align=left;verticalAlign=top;spacingLeft=4;spacingRight=4;overflow=hidden;rotatable=0;points=[[0,0.5],[1,0.5]];portConstraint=eastwest;whiteSpace=wrap;html=1;" parent="51-H1BaUCqU_3-FB2eF7-1" vertex="1">
          <mxGeometry y="400" width="210" height="26" as="geometry" />
        </mxCell>
        <mxCell id="51-H1BaUCqU_3-FB2eF7-13" value="+ shutdown(): virtual void" style="text;strokeColor=none;fillColor=none;align=left;verticalAlign=top;spacingLeft=4;spacingRight=4;overflow=hidden;rotatable=0;points=[[0,0.5],[1,0.5]];portConstraint=eastwest;whiteSpace=wrap;html=1;" parent="51-H1BaUCqU_3-FB2eF7-1" vertex="1">
          <mxGeometry y="426" width="210" height="26" as="geometry" />
        </mxCell>
        <mxCell id="51-H1BaUCqU_3-FB2eF7-14" value="+ update(float deltaTime): virtual void" style="text;strokeColor=none;fillColor=none;align=left;verticalAlign=top;spacingLeft=4;spacingRight=4;overflow=hidden;rotatable=0;points=[[0,0.5],[1,0.5]];portConstraint=eastwest;whiteSpace=wrap;html=1;" parent="51-H1BaUCqU_3-FB2eF7-1" vertex="1">
          <mxGeometry y="452" width="210" height="26" as="geometry" />
        </mxCell>
        <mxCell id="51-H1BaUCqU_3-FB2eF7-12" value="+ draw(): virtual void" style="text;strokeColor=none;fillColor=none;align=left;verticalAlign=top;spacingLeft=4;spacingRight=4;overflow=hidden;rotatable=0;points=[[0,0.5],[1,0.5]];portConstraint=eastwest;whiteSpace=wrap;html=1;" parent="51-H1BaUCqU_3-FB2eF7-1" vertex="1">
          <mxGeometry y="478" width="210" height="26" as="geometry" />
        </mxCell>
        <mxCell id="51-H1BaUCqU_3-FB2eF7-19" value="PhysicsObject" style="swimlane;fontStyle=1;align=center;verticalAlign=top;childLayout=stackLayout;horizontal=1;startSize=26;horizontalStack=0;resizeParent=1;resizeParentMax=0;resizeLast=0;collapsible=1;marginBottom=0;whiteSpace=wrap;html=1;" parent="1" vertex="1">
          <mxGeometry x="320" y="40" width="330" height="190" as="geometry" />
        </mxCell>
        <mxCell id="51-H1BaUCqU_3-FB2eF7-20" value="&amp;lt;&amp;lt;get&amp;gt;&amp;gt; m_shapeID: ShapeType" style="text;strokeColor=none;fillColor=none;align=left;verticalAlign=top;spacingLeft=4;spacingRight=4;overflow=hidden;rotatable=0;points=[[0,0.5],[1,0.5]];portConstraint=eastwest;whiteSpace=wrap;html=1;" parent="51-H1BaUCqU_3-FB2eF7-19" vertex="1">
          <mxGeometry y="26" width="330" height="26" as="geometry" />
        </mxCell>
        <mxCell id="51-H1BaUCqU_3-FB2eF7-23" value="&amp;lt;&amp;lt;get&amp;gt;&amp;gt; m_elasticity: float" style="text;strokeColor=none;fillColor=none;align=left;verticalAlign=top;spacingLeft=4;spacingRight=4;overflow=hidden;rotatable=0;points=[[0,0.5],[1,0.5]];portConstraint=eastwest;whiteSpace=wrap;html=1;" parent="51-H1BaUCqU_3-FB2eF7-19" vertex="1">
          <mxGeometry y="52" width="330" height="26" as="geometry" />
        </mxCell>
        <mxCell id="51-H1BaUCqU_3-FB2eF7-55" value="&amp;lt;&amp;lt;get/set&amp;gt;&amp;gt; m_colour: glm::vec4" style="text;strokeColor=none;fillColor=none;align=left;verticalAlign=top;spacingLeft=4;spacingRight=4;overflow=hidden;rotatable=0;points=[[0,0.5],[1,0.5]];portConstraint=eastwest;whiteSpace=wrap;html=1;" parent="51-H1BaUCqU_3-FB2eF7-19" vertex="1">
          <mxGeometry y="78" width="330" height="26" as="geometry" />
        </mxCell>
        <mxCell id="51-H1BaUCqU_3-FB2eF7-21" value="" style="line;strokeWidth=1;fillColor=none;align=left;verticalAlign=middle;spacingTop=-1;spacingLeft=3;spacingRight=3;rotatable=0;labelPosition=right;points=[];portConstraint=eastwest;strokeColor=inherit;" parent="51-H1BaUCqU_3-FB2eF7-19" vertex="1">
          <mxGeometry y="104" width="330" height="8" as="geometry" />
        </mxCell>
        <mxCell id="51-H1BaUCqU_3-FB2eF7-22" value="+ FixedUpdate(glm::vec2 gravity, float timestep): virtual void" style="text;strokeColor=none;fillColor=none;align=left;verticalAlign=top;spacingLeft=4;spacingRight=4;overflow=hidden;rotatable=0;points=[[0,0.5],[1,0.5]];portConstraint=eastwest;whiteSpace=wrap;html=1;" parent="51-H1BaUCqU_3-FB2eF7-19" vertex="1">
          <mxGeometry y="112" width="330" height="26" as="geometry" />
        </mxCell>
        <mxCell id="51-H1BaUCqU_3-FB2eF7-24" value="+ Draw(): virtual void" style="text;strokeColor=none;fillColor=none;align=left;verticalAlign=top;spacingLeft=4;spacingRight=4;overflow=hidden;rotatable=0;points=[[0,0.5],[1,0.5]];portConstraint=eastwest;whiteSpace=wrap;html=1;" parent="51-H1BaUCqU_3-FB2eF7-19" vertex="1">
          <mxGeometry y="138" width="330" height="26" as="geometry" />
        </mxCell>
        <mxCell id="51-H1BaUCqU_3-FB2eF7-25" value="+ ResetPosition(): virtual void" style="text;strokeColor=none;fillColor=none;align=left;verticalAlign=top;spacingLeft=4;spacingRight=4;overflow=hidden;rotatable=0;points=[[0,0.5],[1,0.5]];portConstraint=eastwest;whiteSpace=wrap;html=1;" parent="51-H1BaUCqU_3-FB2eF7-19" vertex="1">
          <mxGeometry y="164" width="330" height="26" as="geometry" />
        </mxCell>
        <mxCell id="51-H1BaUCqU_3-FB2eF7-26" value="PhysicsScene" style="swimlane;fontStyle=1;align=center;verticalAlign=top;childLayout=stackLayout;horizontal=1;startSize=26;horizontalStack=0;resizeParent=1;resizeParentMax=0;resizeLast=0;collapsible=1;marginBottom=0;whiteSpace=wrap;html=1;" parent="1" vertex="1">
          <mxGeometry x="720" y="40" width="250" height="216" as="geometry" />
        </mxCell>
        <mxCell id="51-H1BaUCqU_3-FB2eF7-27" value="&amp;lt;&amp;lt;get/set&amp;gt;&amp;gt; m_gravity: static glm::vec2" style="text;strokeColor=none;fillColor=none;align=left;verticalAlign=top;spacingLeft=4;spacingRight=4;overflow=hidden;rotatable=0;points=[[0,0.5],[1,0.5]];portConstraint=eastwest;whiteSpace=wrap;html=1;" parent="51-H1BaUCqU_3-FB2eF7-26" vertex="1">
          <mxGeometry y="26" width="250" height="26" as="geometry" />
        </mxCell>
        <mxCell id="51-H1BaUCqU_3-FB2eF7-30" value="&amp;lt;&amp;lt;get/set&amp;gt;&amp;gt; m_timestep: float" style="text;strokeColor=none;fillColor=none;align=left;verticalAlign=top;spacingLeft=4;spacingRight=4;overflow=hidden;rotatable=0;points=[[0,0.5],[1,0.5]];portConstraint=eastwest;whiteSpace=wrap;html=1;" parent="51-H1BaUCqU_3-FB2eF7-26" vertex="1">
          <mxGeometry y="52" width="250" height="26" as="geometry" />
        </mxCell>
        <mxCell id="51-H1BaUCqU_3-FB2eF7-31" value="# m_actors: std::vector&amp;lt;PhysicsObject*&amp;gt;" style="text;strokeColor=none;fillColor=none;align=left;verticalAlign=top;spacingLeft=4;spacingRight=4;overflow=hidden;rotatable=0;points=[[0,0.5],[1,0.5]];portConstraint=eastwest;whiteSpace=wrap;html=1;" parent="51-H1BaUCqU_3-FB2eF7-26" vertex="1">
          <mxGeometry y="78" width="250" height="26" as="geometry" />
        </mxCell>
        <mxCell id="51-H1BaUCqU_3-FB2eF7-28" value="" style="line;strokeWidth=1;fillColor=none;align=left;verticalAlign=middle;spacingTop=-1;spacingLeft=3;spacingRight=3;rotatable=0;labelPosition=right;points=[];portConstraint=eastwest;strokeColor=inherit;" parent="51-H1BaUCqU_3-FB2eF7-26" vertex="1">
          <mxGeometry y="104" width="250" height="8" as="geometry" />
        </mxCell>
        <mxCell id="51-H1BaUCqU_3-FB2eF7-29" value="+ AddActor(PhysicsObject* actor): void" style="text;strokeColor=none;fillColor=none;align=left;verticalAlign=top;spacingLeft=4;spacingRight=4;overflow=hidden;rotatable=0;points=[[0,0.5],[1,0.5]];portConstraint=eastwest;whiteSpace=wrap;html=1;" parent="51-H1BaUCqU_3-FB2eF7-26" vertex="1">
          <mxGeometry y="112" width="250" height="26" as="geometry" />
        </mxCell>
        <mxCell id="51-H1BaUCqU_3-FB2eF7-32" value="+ RemoveActor(PhysicsObject* actor): void" style="text;strokeColor=none;fillColor=none;align=left;verticalAlign=top;spacingLeft=4;spacingRight=4;overflow=hidden;rotatable=0;points=[[0,0.5],[1,0.5]];portConstraint=eastwest;whiteSpace=wrap;html=1;" parent="51-H1BaUCqU_3-FB2eF7-26" vertex="1">
          <mxGeometry y="138" width="250" height="26" as="geometry" />
        </mxCell>
        <mxCell id="51-H1BaUCqU_3-FB2eF7-33" value="+ Update(float dt): void" style="text;strokeColor=none;fillColor=none;align=left;verticalAlign=top;spacingLeft=4;spacingRight=4;overflow=hidden;rotatable=0;points=[[0,0.5],[1,0.5]];portConstraint=eastwest;whiteSpace=wrap;html=1;" parent="51-H1BaUCqU_3-FB2eF7-26" vertex="1">
          <mxGeometry y="164" width="250" height="26" as="geometry" />
        </mxCell>
        <mxCell id="51-H1BaUCqU_3-FB2eF7-34" value="+ Draw(): void" style="text;strokeColor=none;fillColor=none;align=left;verticalAlign=top;spacingLeft=4;spacingRight=4;overflow=hidden;rotatable=0;points=[[0,0.5],[1,0.5]];portConstraint=eastwest;whiteSpace=wrap;html=1;" parent="51-H1BaUCqU_3-FB2eF7-26" vertex="1">
          <mxGeometry y="190" width="250" height="26" as="geometry" />
        </mxCell>
        <mxCell id="Owaje1IelQXX3cJqMaoT-1" style="edgeStyle=orthogonalEdgeStyle;rounded=0;orthogonalLoop=1;jettySize=auto;html=1;exitX=0.5;exitY=0;exitDx=0;exitDy=0;entryX=0;entryY=0.5;entryDx=0;entryDy=0;endArrow=block;endFill=0;endSize=20;" parent="1" source="51-H1BaUCqU_3-FB2eF7-36" target="51-H1BaUCqU_3-FB2eF7-55" edge="1">
          <mxGeometry relative="1" as="geometry">
            <Array as="points">
              <mxPoint x="280" y="576" />
              <mxPoint x="280" y="131" />
            </Array>
          </mxGeometry>
        </mxCell>
        <mxCell id="51-H1BaUCqU_3-FB2eF7-36" value="RigidBody" style="swimlane;fontStyle=1;align=center;verticalAlign=top;childLayout=stackLayout;horizontal=1;startSize=26;horizontalStack=0;resizeParent=1;resizeParentMax=0;resizeLast=0;collapsible=1;marginBottom=0;whiteSpace=wrap;html=1;" parent="1" vertex="1">
          <mxGeometry x="40" y="576" width="550" height="372" as="geometry" />
        </mxCell>
        <mxCell id="51-H1BaUCqU_3-FB2eF7-37" value="&amp;lt;&amp;lt;get/set&amp;gt;&amp;gt; m_position: glm::vec2" style="text;strokeColor=none;fillColor=none;align=left;verticalAlign=top;spacingLeft=4;spacingRight=4;overflow=hidden;rotatable=0;points=[[0,0.5],[1,0.5]];portConstraint=eastwest;whiteSpace=wrap;html=1;" parent="51-H1BaUCqU_3-FB2eF7-36" vertex="1">
          <mxGeometry y="26" width="550" height="26" as="geometry" />
        </mxCell>
        <mxCell id="51-H1BaUCqU_3-FB2eF7-40" value="&amp;lt;&amp;lt;get/set&amp;gt;&amp;gt; m_velocity: glm::vec2" style="text;strokeColor=none;fillColor=none;align=left;verticalAlign=top;spacingLeft=4;spacingRight=4;overflow=hidden;rotatable=0;points=[[0,0.5],[1,0.5]];portConstraint=eastwest;whiteSpace=wrap;html=1;" parent="51-H1BaUCqU_3-FB2eF7-36" vertex="1">
          <mxGeometry y="52" width="550" height="26" as="geometry" />
        </mxCell>
        <mxCell id="51-H1BaUCqU_3-FB2eF7-41" value="&amp;lt;&amp;lt;get&amp;gt;&amp;gt; m_mass: float" style="text;strokeColor=none;fillColor=none;align=left;verticalAlign=top;spacingLeft=4;spacingRight=4;overflow=hidden;rotatable=0;points=[[0,0.5],[1,0.5]];portConstraint=eastwest;whiteSpace=wrap;html=1;" parent="51-H1BaUCqU_3-FB2eF7-36" vertex="1">
          <mxGeometry y="78" width="550" height="26" as="geometry" />
        </mxCell>
        <mxCell id="51-H1BaUCqU_3-FB2eF7-42" value="&amp;lt;&amp;lt;get/set&amp;gt;&amp;gt; m_orientation: float" style="text;strokeColor=none;fillColor=none;align=left;verticalAlign=top;spacingLeft=4;spacingRight=4;overflow=hidden;rotatable=0;points=[[0,0.5],[1,0.5]];portConstraint=eastwest;whiteSpace=wrap;html=1;" parent="51-H1BaUCqU_3-FB2eF7-36" vertex="1">
          <mxGeometry y="104" width="550" height="26" as="geometry" />
        </mxCell>
        <mxCell id="51-H1BaUCqU_3-FB2eF7-44" value="&amp;lt;&amp;lt;get/set&amp;gt;&amp;gt; m_angularVelocity: float" style="text;strokeColor=none;fillColor=none;align=left;verticalAlign=top;spacingLeft=4;spacingRight=4;overflow=hidden;rotatable=0;points=[[0,0.5],[1,0.5]];portConstraint=eastwest;whiteSpace=wrap;html=1;" parent="51-H1BaUCqU_3-FB2eF7-36" vertex="1">
          <mxGeometry y="130" width="550" height="26" as="geometry" />
        </mxCell>
        <mxCell id="51-H1BaUCqU_3-FB2eF7-43" value="&amp;lt;&amp;lt;get&amp;gt;&amp;gt; m_moment: float" style="text;strokeColor=none;fillColor=none;align=left;verticalAlign=top;spacingLeft=4;spacingRight=4;overflow=hidden;rotatable=0;points=[[0,0.5],[1,0.5]];portConstraint=eastwest;whiteSpace=wrap;html=1;" parent="51-H1BaUCqU_3-FB2eF7-36" vertex="1">
          <mxGeometry y="156" width="550" height="26" as="geometry" />
        </mxCell>
        <mxCell id="51-H1BaUCqU_3-FB2eF7-45" value="# m_linearDrag: float" style="text;strokeColor=none;fillColor=none;align=left;verticalAlign=top;spacingLeft=4;spacingRight=4;overflow=hidden;rotatable=0;points=[[0,0.5],[1,0.5]];portConstraint=eastwest;whiteSpace=wrap;html=1;" parent="51-H1BaUCqU_3-FB2eF7-36" vertex="1">
          <mxGeometry y="182" width="550" height="26" as="geometry" />
        </mxCell>
        <mxCell id="51-H1BaUCqU_3-FB2eF7-46" value="# m_angularDrag: float" style="text;strokeColor=none;fillColor=none;align=left;verticalAlign=top;spacingLeft=4;spacingRight=4;overflow=hidden;rotatable=0;points=[[0,0.5],[1,0.5]];portConstraint=eastwest;whiteSpace=wrap;html=1;" parent="51-H1BaUCqU_3-FB2eF7-36" vertex="1">
          <mxGeometry y="208" width="550" height="26" as="geometry" />
        </mxCell>
        <mxCell id="51-H1BaUCqU_3-FB2eF7-47" value="# MIN_LINEAR_THRESHOLD: const static float" style="text;strokeColor=none;fillColor=none;align=left;verticalAlign=top;spacingLeft=4;spacingRight=4;overflow=hidden;rotatable=0;points=[[0,0.5],[1,0.5]];portConstraint=eastwest;whiteSpace=wrap;html=1;" parent="51-H1BaUCqU_3-FB2eF7-36" vertex="1">
          <mxGeometry y="234" width="550" height="26" as="geometry" />
        </mxCell>
        <mxCell id="51-H1BaUCqU_3-FB2eF7-48" value="# MIN_ANGULAR_THRESHOLD: const static float" style="text;strokeColor=none;fillColor=none;align=left;verticalAlign=top;spacingLeft=4;spacingRight=4;overflow=hidden;rotatable=0;points=[[0,0.5],[1,0.5]];portConstraint=eastwest;whiteSpace=wrap;html=1;" parent="51-H1BaUCqU_3-FB2eF7-36" vertex="1">
          <mxGeometry y="260" width="550" height="26" as="geometry" />
        </mxCell>
        <mxCell id="51-H1BaUCqU_3-FB2eF7-38" value="" style="line;strokeWidth=1;fillColor=none;align=left;verticalAlign=middle;spacingTop=-1;spacingLeft=3;spacingRight=3;rotatable=0;labelPosition=right;points=[];portConstraint=eastwest;strokeColor=inherit;" parent="51-H1BaUCqU_3-FB2eF7-36" vertex="1">
          <mxGeometry y="286" width="550" height="8" as="geometry" />
        </mxCell>
        <mxCell id="51-H1BaUCqU_3-FB2eF7-39" value="+ FixedUpdate(glm::vec2 gravity, float timestep): virtual void" style="text;strokeColor=none;fillColor=none;align=left;verticalAlign=top;spacingLeft=4;spacingRight=4;overflow=hidden;rotatable=0;points=[[0,0.5],[1,0.5]];portConstraint=eastwest;whiteSpace=wrap;html=1;" parent="51-H1BaUCqU_3-FB2eF7-36" vertex="1">
          <mxGeometry y="294" width="550" height="26" as="geometry" />
        </mxCell>
        <mxCell id="51-H1BaUCqU_3-FB2eF7-49" value="+ ApplyForce(glm::vec2 force, glm::vec2 pos): void" style="text;strokeColor=none;fillColor=none;align=left;verticalAlign=top;spacingLeft=4;spacingRight=4;overflow=hidden;rotatable=0;points=[[0,0.5],[1,0.5]];portConstraint=eastwest;whiteSpace=wrap;html=1;" parent="51-H1BaUCqU_3-FB2eF7-36" vertex="1">
          <mxGeometry y="320" width="550" height="26" as="geometry" />
        </mxCell>
        <mxCell id="51-H1BaUCqU_3-FB2eF7-50" value="+ ResolveCollision(RigidBody* actor2, glm::vec2 contact, glm::vec2* collisionNormal, float pen): void" style="text;strokeColor=none;fillColor=none;align=left;verticalAlign=top;spacingLeft=4;spacingRight=4;overflow=hidden;rotatable=0;points=[[0,0.5],[1,0.5]];portConstraint=eastwest;whiteSpace=wrap;html=1;" parent="51-H1BaUCqU_3-FB2eF7-36" vertex="1">
          <mxGeometry y="346" width="550" height="26" as="geometry" />
        </mxCell>
        <mxCell id="51-H1BaUCqU_3-FB2eF7-51" value="Sphere" style="swimlane;fontStyle=1;align=center;verticalAlign=top;childLayout=stackLayout;horizontal=1;startSize=26;horizontalStack=0;resizeParent=1;resizeParentMax=0;resizeLast=0;collapsible=1;marginBottom=0;whiteSpace=wrap;html=1;" parent="1" vertex="1">
          <mxGeometry x="320" y="280" width="170" height="86" as="geometry" />
        </mxCell>
        <mxCell id="51-H1BaUCqU_3-FB2eF7-52" value="&amp;lt;&amp;lt;get&amp;gt;&amp;gt; m_radius: float" style="text;strokeColor=none;fillColor=none;align=left;verticalAlign=top;spacingLeft=4;spacingRight=4;overflow=hidden;rotatable=0;points=[[0,0.5],[1,0.5]];portConstraint=eastwest;whiteSpace=wrap;html=1;" parent="51-H1BaUCqU_3-FB2eF7-51" vertex="1">
          <mxGeometry y="26" width="170" height="26" as="geometry" />
        </mxCell>
        <mxCell id="51-H1BaUCqU_3-FB2eF7-53" value="" style="line;strokeWidth=1;fillColor=none;align=left;verticalAlign=middle;spacingTop=-1;spacingLeft=3;spacingRight=3;rotatable=0;labelPosition=right;points=[];portConstraint=eastwest;strokeColor=inherit;" parent="51-H1BaUCqU_3-FB2eF7-51" vertex="1">
          <mxGeometry y="52" width="170" height="8" as="geometry" />
        </mxCell>
        <mxCell id="51-H1BaUCqU_3-FB2eF7-54" value="+ Draw(): virtual void" style="text;strokeColor=none;fillColor=none;align=left;verticalAlign=top;spacingLeft=4;spacingRight=4;overflow=hidden;rotatable=0;points=[[0,0.5],[1,0.5]];portConstraint=eastwest;whiteSpace=wrap;html=1;" parent="51-H1BaUCqU_3-FB2eF7-51" vertex="1">
          <mxGeometry y="60" width="170" height="26" as="geometry" />
        </mxCell>
        <mxCell id="G3ebjoVx0UiYCA5aOwcK-1" style="edgeStyle=orthogonalEdgeStyle;rounded=0;orthogonalLoop=1;jettySize=auto;html=1;exitX=0.25;exitY=0;exitDx=0;exitDy=0;endArrow=block;endFill=0;startSize=6;endSize=20;" edge="1" parent="1">
          <mxGeometry relative="1" as="geometry">
            <mxPoint x="812.5" y="320" as="sourcePoint" />
            <mxPoint x="530" y="230" as="targetPoint" />
            <Array as="points">
              <mxPoint x="680" y="320" />
              <mxPoint x="680" y="400" />
              <mxPoint x="530" y="400" />
            </Array>
          </mxGeometry>
        </mxCell>
        <mxCell id="51-H1BaUCqU_3-FB2eF7-56" value="Plane" style="swimlane;fontStyle=1;align=center;verticalAlign=top;childLayout=stackLayout;horizontal=1;startSize=26;horizontalStack=0;resizeParent=1;resizeParentMax=0;resizeLast=0;collapsible=1;marginBottom=0;whiteSpace=wrap;html=1;" parent="1" vertex="1">
          <mxGeometry x="680" y="320" width="350" height="190" as="geometry" />
        </mxCell>
        <mxCell id="51-H1BaUCqU_3-FB2eF7-57" value="&amp;lt;&amp;lt;get&amp;gt;&amp;gt; m_normal: glm::vec2" style="text;strokeColor=none;fillColor=none;align=left;verticalAlign=top;spacingLeft=4;spacingRight=4;overflow=hidden;rotatable=0;points=[[0,0.5],[1,0.5]];portConstraint=eastwest;whiteSpace=wrap;html=1;" parent="51-H1BaUCqU_3-FB2eF7-56" vertex="1">
          <mxGeometry y="26" width="350" height="26" as="geometry" />
        </mxCell>
        <mxCell id="51-H1BaUCqU_3-FB2eF7-60" value="&amp;lt;&amp;lt;get&amp;gt;&amp;gt; m_distanceToOrigin: float" style="text;strokeColor=none;fillColor=none;align=left;verticalAlign=top;spacingLeft=4;spacingRight=4;overflow=hidden;rotatable=0;points=[[0,0.5],[1,0.5]];portConstraint=eastwest;whiteSpace=wrap;html=1;" parent="51-H1BaUCqU_3-FB2eF7-56" vertex="1">
          <mxGeometry y="52" width="350" height="26" as="geometry" />
        </mxCell>
        <mxCell id="51-H1BaUCqU_3-FB2eF7-58" value="" style="line;strokeWidth=1;fillColor=none;align=left;verticalAlign=middle;spacingTop=-1;spacingLeft=3;spacingRight=3;rotatable=0;labelPosition=right;points=[];portConstraint=eastwest;strokeColor=inherit;" parent="51-H1BaUCqU_3-FB2eF7-56" vertex="1">
          <mxGeometry y="78" width="350" height="8" as="geometry" />
        </mxCell>
        <mxCell id="51-H1BaUCqU_3-FB2eF7-59" value="+ FixedUpdate(glm::vec2 gravity, float timestep): virtual void" style="text;strokeColor=none;fillColor=none;align=left;verticalAlign=top;spacingLeft=4;spacingRight=4;overflow=hidden;rotatable=0;points=[[0,0.5],[1,0.5]];portConstraint=eastwest;whiteSpace=wrap;html=1;" parent="51-H1BaUCqU_3-FB2eF7-56" vertex="1">
          <mxGeometry y="86" width="350" height="26" as="geometry" />
        </mxCell>
        <mxCell id="51-H1BaUCqU_3-FB2eF7-62" value="+ Draw(): virtual void" style="text;strokeColor=none;fillColor=none;align=left;verticalAlign=top;spacingLeft=4;spacingRight=4;overflow=hidden;rotatable=0;points=[[0,0.5],[1,0.5]];portConstraint=eastwest;whiteSpace=wrap;html=1;" parent="51-H1BaUCqU_3-FB2eF7-56" vertex="1">
          <mxGeometry y="112" width="350" height="26" as="geometry" />
        </mxCell>
        <mxCell id="51-H1BaUCqU_3-FB2eF7-63" value="+ ResetPosition(): virtual void" style="text;strokeColor=none;fillColor=none;align=left;verticalAlign=top;spacingLeft=4;spacingRight=4;overflow=hidden;rotatable=0;points=[[0,0.5],[1,0.5]];portConstraint=eastwest;whiteSpace=wrap;html=1;" parent="51-H1BaUCqU_3-FB2eF7-56" vertex="1">
          <mxGeometry y="138" width="350" height="26" as="geometry" />
        </mxCell>
        <mxCell id="51-H1BaUCqU_3-FB2eF7-64" value="+ ResolveCollision(RigidBody* actor2, glm::vec2 contact): void" style="text;strokeColor=none;fillColor=none;align=left;verticalAlign=top;spacingLeft=4;spacingRight=4;overflow=hidden;rotatable=0;points=[[0,0.5],[1,0.5]];portConstraint=eastwest;whiteSpace=wrap;html=1;" parent="51-H1BaUCqU_3-FB2eF7-56" vertex="1">
          <mxGeometry y="164" width="350" height="26" as="geometry" />
        </mxCell>
        <mxCell id="51-H1BaUCqU_3-FB2eF7-79" value="" style="edgeStyle=orthogonalEdgeStyle;rounded=0;orthogonalLoop=1;jettySize=auto;html=1;endArrow=block;endFill=0;endSize=20;entryX=0.995;entryY=0.808;entryDx=0;entryDy=0;entryPerimeter=0;exitX=0;exitY=0.5;exitDx=0;exitDy=0;" parent="1" source="51-H1BaUCqU_3-FB2eF7-73" target="51-H1BaUCqU_3-FB2eF7-48" edge="1">
          <mxGeometry relative="1" as="geometry">
            <mxPoint x="690" y="800" as="sourcePoint" />
            <mxPoint x="600" y="839" as="targetPoint" />
          </mxGeometry>
        </mxCell>
        <mxCell id="51-H1BaUCqU_3-FB2eF7-65" value="Box" style="swimlane;fontStyle=1;align=center;verticalAlign=top;childLayout=stackLayout;horizontal=1;startSize=26;horizontalStack=0;resizeParent=1;resizeParentMax=0;resizeLast=0;collapsible=1;marginBottom=0;whiteSpace=wrap;html=1;" parent="1" vertex="1">
          <mxGeometry x="680" y="680" width="610" height="242" as="geometry" />
        </mxCell>
        <mxCell id="51-H1BaUCqU_3-FB2eF7-66" value="&amp;lt;&amp;lt;get&amp;gt;&amp;gt; m_extents: glm::vec2" style="text;strokeColor=none;fillColor=none;align=left;verticalAlign=top;spacingLeft=4;spacingRight=4;overflow=hidden;rotatable=0;points=[[0,0.5],[1,0.5]];portConstraint=eastwest;whiteSpace=wrap;html=1;" parent="51-H1BaUCqU_3-FB2eF7-65" vertex="1">
          <mxGeometry y="26" width="610" height="26" as="geometry" />
        </mxCell>
        <mxCell id="51-H1BaUCqU_3-FB2eF7-70" value="&amp;lt;&amp;lt;get&amp;gt;&amp;gt;&amp;nbsp;m_localX: glm::vec2" style="text;strokeColor=none;fillColor=none;align=left;verticalAlign=top;spacingLeft=4;spacingRight=4;overflow=hidden;rotatable=0;points=[[0,0.5],[1,0.5]];portConstraint=eastwest;whiteSpace=wrap;html=1;" parent="51-H1BaUCqU_3-FB2eF7-65" vertex="1">
          <mxGeometry y="52" width="610" height="26" as="geometry" />
        </mxCell>
        <mxCell id="51-H1BaUCqU_3-FB2eF7-72" value="&amp;lt;&amp;lt;get&amp;gt;&amp;gt;&amp;nbsp;m_localY: glm::vec2" style="text;strokeColor=none;fillColor=none;align=left;verticalAlign=top;spacingLeft=4;spacingRight=4;overflow=hidden;rotatable=0;points=[[0,0.5],[1,0.5]];portConstraint=eastwest;whiteSpace=wrap;html=1;" parent="51-H1BaUCqU_3-FB2eF7-65" vertex="1">
          <mxGeometry y="78" width="610" height="26" as="geometry" />
        </mxCell>
        <mxCell id="51-H1BaUCqU_3-FB2eF7-67" value="" style="line;strokeWidth=1;fillColor=none;align=left;verticalAlign=middle;spacingTop=-1;spacingLeft=3;spacingRight=3;rotatable=0;labelPosition=right;points=[];portConstraint=eastwest;strokeColor=inherit;" parent="51-H1BaUCqU_3-FB2eF7-65" vertex="1">
          <mxGeometry y="104" width="610" height="8" as="geometry" />
        </mxCell>
        <mxCell id="51-H1BaUCqU_3-FB2eF7-68" value="+ FixedUpdate(glm::vec2 gravity, float timestep)" style="text;strokeColor=none;fillColor=none;align=left;verticalAlign=top;spacingLeft=4;spacingRight=4;overflow=hidden;rotatable=0;points=[[0,0.5],[1,0.5]];portConstraint=eastwest;whiteSpace=wrap;html=1;" parent="51-H1BaUCqU_3-FB2eF7-65" vertex="1">
          <mxGeometry y="112" width="610" height="26" as="geometry" />
        </mxCell>
        <mxCell id="51-H1BaUCqU_3-FB2eF7-73" value="+ Draw(): void" style="text;strokeColor=none;fillColor=none;align=left;verticalAlign=top;spacingLeft=4;spacingRight=4;overflow=hidden;rotatable=0;points=[[0,0.5],[1,0.5]];portConstraint=eastwest;whiteSpace=wrap;html=1;" parent="51-H1BaUCqU_3-FB2eF7-65" vertex="1">
          <mxGeometry y="138" width="610" height="26" as="geometry" />
        </mxCell>
        <mxCell id="51-H1BaUCqU_3-FB2eF7-74" value="+ CheckBoxCorners(Box* box, glm::vec2&amp;amp; contact, int&amp;amp; numContacts, float&amp;amp; pen, glm::vec2&amp;amp; edgeNormal): bool" style="text;strokeColor=none;fillColor=none;align=left;verticalAlign=top;spacingLeft=4;spacingRight=4;overflow=hidden;rotatable=0;points=[[0,0.5],[1,0.5]];portConstraint=eastwest;whiteSpace=wrap;html=1;" parent="51-H1BaUCqU_3-FB2eF7-65" vertex="1">
          <mxGeometry y="164" width="610" height="26" as="geometry" />
        </mxCell>
        <mxCell id="51-H1BaUCqU_3-FB2eF7-75" value="+ GetWidth(): float" style="text;strokeColor=none;fillColor=none;align=left;verticalAlign=top;spacingLeft=4;spacingRight=4;overflow=hidden;rotatable=0;points=[[0,0.5],[1,0.5]];portConstraint=eastwest;whiteSpace=wrap;html=1;" parent="51-H1BaUCqU_3-FB2eF7-65" vertex="1">
          <mxGeometry y="190" width="610" height="26" as="geometry" />
        </mxCell>
        <mxCell id="51-H1BaUCqU_3-FB2eF7-76" value="+ GetHeight(): float" style="text;strokeColor=none;fillColor=none;align=left;verticalAlign=top;spacingLeft=4;spacingRight=4;overflow=hidden;rotatable=0;points=[[0,0.5],[1,0.5]];portConstraint=eastwest;whiteSpace=wrap;html=1;" parent="51-H1BaUCqU_3-FB2eF7-65" vertex="1">
          <mxGeometry y="216" width="610" height="26" as="geometry" />
        </mxCell>
        <mxCell id="51-H1BaUCqU_3-FB2eF7-77" style="edgeStyle=orthogonalEdgeStyle;rounded=0;orthogonalLoop=1;jettySize=auto;html=1;exitX=0.476;exitY=1;exitDx=0;exitDy=0;entryX=0.655;entryY=0;entryDx=0;entryDy=0;endArrow=block;endFill=0;strokeWidth=1;endSize=20;entryPerimeter=0;exitPerimeter=0;" parent="1" source="51-H1BaUCqU_3-FB2eF7-54" target="51-H1BaUCqU_3-FB2eF7-36" edge="1">
          <mxGeometry relative="1" as="geometry">
            <mxPoint x="400" y="392" as="sourcePoint" />
            <mxPoint x="670" y="632" as="targetPoint" />
            <Array as="points">
              <mxPoint x="401" y="490" />
            </Array>
          </mxGeometry>
        </mxCell>
      </root>
    </mxGraphModel>
  </diagram>
</mxfile>
